<svg xmlns="http://www.w3.org/2000/svg" xmlns:xlink="http://www.w3.org/1999/xlink" width="48" height="41" viewBox="0 0 48 41">
    <defs>
        <path id="a" d="M0 5h46a2 2 0 0 1 2 2v32a2 2 0 0 1-2 2H2a2 2 0 0 1-2-2V5z"/>
    </defs>
    <g fill="none" fill-rule="evenodd">
        <path fill="#4E9856" d="M1 0h12.84a2 2 0 0 1 1.71.962L18 5H0V1a1 1 0 0 1 1-1z"/>
        <g>
            <use fill="#77C87F" xlink:href="#a"/>
            <path stroke="#77C87F" d="M.5 5.5V39A1.5 1.5 0 0 0 2 40.5h44a1.5 1.5 0 0 0 1.5-1.5V7A1.5 1.5 0 0 0 46 5.5H.5z"/>
        </g>
    </g>
</svg>
